<svg width="35" height="27" viewBox="0 0 35 27" fill="none" xmlns="http://www.w3.org/2000/svg">
<path d="M31.7188 0.375H30.625L17.5 10.7394L4.375 0.375H3.28125C2.41101 0.375 1.57641 0.720702 0.961056 1.33606C0.345702 1.95141 0 2.78601 0 3.65625L0 23.3438C0 24.214 0.345702 25.0486 0.961056 25.6639C1.57641 26.2793 2.41101 26.625 3.28125 26.625H4.375V6.16313L17.5 16.2584L30.625 6.16094V26.625H31.7188C32.589 26.625 33.4236 26.2793 34.0389 25.6639C34.6543 25.0486 35 24.214 35 23.3438V3.65625C35 2.78601 34.6543 1.95141 34.0389 1.33606C33.4236 0.720702 32.589 0.375 31.7188 0.375Z" fill="#F44336"/>
</svg>
