<svg width="35" height="35" viewBox="0 0 35 35" fill="none" xmlns="http://www.w3.org/2000/svg">
<g clip-path="url(#clip0_399_687)">
<path d="M24.0625 0H10.9375C8.03669 0 5.2547 1.15234 3.20352 3.20352C1.15234 5.2547 0 8.03669 0 10.9375L0 24.0625C0 26.9633 1.15234 29.7453 3.20352 31.7965C5.2547 33.8477 8.03669 35 10.9375 35H24.0625C26.9633 35 29.7453 33.8477 31.7965 31.7965C33.8477 29.7453 35 26.9633 35 24.0625V10.9375C35 8.03669 33.8477 5.2547 31.7965 3.20352C29.7453 1.15234 26.9633 0 24.0625 0V0ZM31.7188 24.0625C31.7188 28.2844 28.2844 31.7188 24.0625 31.7188H10.9375C6.71563 31.7188 3.28125 28.2844 3.28125 24.0625V10.9375C3.28125 6.71563 6.71563 3.28125 10.9375 3.28125H24.0625C28.2844 3.28125 31.7188 6.71563 31.7188 10.9375V24.0625Z" fill="url(#paint0_linear_399_687)"/>
<path d="M17.5 8.75C15.1794 8.75 12.9538 9.67187 11.3128 11.3128C9.67187 12.9538 8.75 15.1794 8.75 17.5C8.75 19.8206 9.67187 22.0462 11.3128 23.6872C12.9538 25.3281 15.1794 26.25 17.5 26.25C19.8206 26.25 22.0462 25.3281 23.6872 23.6872C25.3281 22.0462 26.25 19.8206 26.25 17.5C26.25 15.1794 25.3281 12.9538 23.6872 11.3128C22.0462 9.67187 19.8206 8.75 17.5 8.75ZM17.5 22.9688C16.0501 22.967 14.6601 22.3903 13.6349 21.3651C12.6097 20.3399 12.033 18.9499 12.0312 17.5C12.0312 14.4834 14.4856 12.0312 17.5 12.0312C20.5144 12.0312 22.9688 14.4834 22.9688 17.5C22.9688 20.5144 20.5144 22.9688 17.5 22.9688Z" fill="url(#paint1_linear_399_687)"/>
<path d="M26.9062 9.25961C27.5501 9.25961 28.0721 8.7376 28.0721 8.09367C28.0721 7.44974 27.5501 6.92773 26.9062 6.92773C26.2622 6.92773 25.7402 7.44974 25.7402 8.09367C25.7402 8.7376 26.2622 9.25961 26.9062 9.25961Z" fill="url(#paint2_linear_399_687)"/>
</g>
<defs>
<linearGradient id="paint0_linear_399_687" x1="3.2025" y1="31.7975" x2="31.7975" y2="3.2025" gradientUnits="userSpaceOnUse">
<stop stop-color="#FFC107"/>
<stop offset="0.507" stop-color="#F44336"/>
<stop offset="0.99" stop-color="#9C27B0"/>
</linearGradient>
<linearGradient id="paint1_linear_399_687" x1="11.3138" y1="23.6862" x2="23.6862" y2="11.3138" gradientUnits="userSpaceOnUse">
<stop stop-color="#FFC107"/>
<stop offset="0.507" stop-color="#F44336"/>
<stop offset="0.99" stop-color="#9C27B0"/>
</linearGradient>
<linearGradient id="paint2_linear_399_687" x1="26.0815" y1="8.91836" x2="27.7309" y2="7.26898" gradientUnits="userSpaceOnUse">
<stop stop-color="#FFC107"/>
<stop offset="0.507" stop-color="#F44336"/>
<stop offset="0.99" stop-color="#9C27B0"/>
</linearGradient>
<clipPath id="clip0_399_687">
<rect width="35" height="35" fill="white"/>
</clipPath>
</defs>
</svg>
