<svg width="1440" height="568" viewBox="0 0 1440 568" fill="none" xmlns="http://www.w3.org/2000/svg">
<path fill-rule="evenodd" clip-rule="evenodd" d="M1440 146.01V253.959H0V0.787705C80.5704 -4.48678 208.861 14.81 324.5 117.46C470.5 247.06 630 145.126 691.5 77.9595C720.833 52.7928 802.9 22.7595 896.5 103.959C1013.5 205.459 1105 227.459 1158.5 194.959C1174.33 185.341 1191.04 169.548 1208.73 152.829C1250.81 113.055 1298.44 68.0419 1353 88.4595C1391.46 102.849 1418.22 123.764 1440 146.01Z" fill="#0085FF"/>
<path fill-rule="evenodd" clip-rule="evenodd" d="M0 254V2C82.5908 6.00783 193.197 38.0199 294.493 138.749C446.721 290.125 613.024 171.065 677.148 92.6122C707.732 63.2169 793.299 28.1372 890.892 122.981C1012.88 241.535 1108.29 267.232 1164.07 229.271C1180.58 218.037 1198 199.59 1216.44 180.062C1260.32 133.605 1309.97 81.0282 1366.86 104.876C1397.22 117.6 1420.58 134.692 1440 153.52V192.959V255.5V256V568H0V256V254Z" fill="#1759BB"/>
</svg>
