<svg width="242" height="252" viewBox="0 0 242 252" fill="none" xmlns="http://www.w3.org/2000/svg">
<g clip-path="url(#clip0_180_165)">
<path d="M20.0467 215.594L31.1316 225.795L22.3221 211.019C29.2627 198.438 40.6139 187.564 40.6139 187.564C40.6139 187.564 64.1637 210.118 64.1637 227.847C64.1637 245.576 53.6201 251.767 40.6139 251.767C27.6079 251.767 17.0643 245.576 17.0643 227.847C17.0643 223.901 18.2327 219.716 20.0467 215.594Z" fill="#F2F2F2"/>
<path d="M33.9823 226.347V227.221C34.0343 237.379 35.7481 245.305 39.1108 250.885C39.1584 250.968 39.2103 251.046 39.2579 251.128L39.6345 250.898L39.9937 250.673C36.2631 244.647 34.9431 236.129 34.8955 227.269C34.8912 226.983 34.8869 226.693 34.8912 226.404C34.9042 222.653 35.1335 218.859 35.5014 215.173C35.5274 214.887 35.5577 214.597 35.588 214.308C36.0987 209.445 36.8344 204.799 37.5874 200.762C37.6393 200.477 37.6956 200.191 37.7519 199.91C39.0545 193.083 40.3832 188.139 40.6861 187.044C40.7207 186.91 40.7424 186.836 40.7467 186.819L40.3356 186.702L40.3312 186.698L39.9158 186.581C39.9114 186.598 39.8379 186.845 39.7167 187.304C39.2536 189.017 38.0505 193.667 36.869 199.802C36.817 200.079 36.7608 200.364 36.7089 200.65C36.0943 203.925 35.4928 207.585 35.0167 211.426C34.8955 212.391 34.7873 213.343 34.6921 214.282C34.6575 214.572 34.6272 214.861 34.6012 215.147C34.203 219.131 33.9967 222.865 33.9823 226.347Z" fill="white"/>
<path d="M36.8689 199.802C37.1589 199.841 37.4532 199.88 37.7518 199.91C38.5628 199.994 39.3774 200.035 40.1927 200.036C43.667 200.04 47.0981 199.265 50.2332 197.769C50.415 197.998 50.5967 198.227 50.7828 198.461C47.4849 200.07 43.8626 200.905 40.1927 200.901C39.3224 200.901 38.4528 200.854 37.5874 200.762C37.2931 200.732 36.9988 200.693 36.7088 200.65C34.3153 200.307 31.9878 199.602 29.806 198.56C29.992 198.322 30.1738 198.089 30.3513 197.859C32.4163 198.824 34.6125 199.479 36.8689 199.802Z" fill="white"/>
<path d="M34.6921 214.282C34.9907 214.299 35.2893 214.308 35.5879 214.308C35.6788 214.312 35.774 214.312 35.8649 214.312C39.6295 214.312 43.3383 213.402 46.6752 211.66C50.012 209.917 52.8778 207.394 55.0284 204.305C55.2015 204.561 55.3746 204.816 55.5434 205.076C53.3019 208.201 50.3477 210.747 46.9256 212.504C43.5034 214.261 39.7118 215.177 35.8649 215.177C35.7437 215.177 35.6225 215.177 35.5013 215.173C35.1984 215.169 34.8998 215.16 34.6012 215.147C29.9803 214.91 25.5255 213.348 21.7692 210.648C21.9077 210.392 22.0462 210.137 22.189 209.882C25.8396 212.533 30.1849 214.063 34.6921 214.282Z" fill="white"/>
<path d="M33.9823 226.347C34.2853 226.373 34.5882 226.391 34.8912 226.404C35.2158 226.417 35.5403 226.425 35.8649 226.425C40.9236 226.419 45.8443 224.776 49.8903 221.741C53.9363 218.705 56.8899 214.441 58.3089 209.588C58.5037 209.938 58.6984 210.284 58.8845 210.635C57.2857 215.477 54.2009 219.693 50.0685 222.683C45.9361 225.673 40.9662 227.285 35.8649 227.29C35.5403 227.29 35.2157 227.286 34.8955 227.269C34.5882 227.26 34.2853 227.243 33.9823 227.221C27.8632 226.743 22.1547 223.958 18.0127 219.43C18.1036 219.11 18.2074 218.794 18.3113 218.474C22.312 223.035 27.9331 225.86 33.9823 226.347Z" fill="white"/>
<path d="M59.9088 54.4877L180.477 39.1221C180.801 39.0805 181.128 39.0592 181.456 39.0586C181.779 39.058 182.101 39.0784 182.421 39.1195C182.741 39.1606 183.057 39.2225 183.369 39.3049C183.684 39.389 183.993 39.4934 184.295 39.6173C184.591 39.7386 184.879 39.8778 185.157 40.034C185.44 40.1913 185.713 40.3652 185.975 40.5547C186.243 40.7492 186.499 40.9587 186.744 41.1822C186.996 41.4123 187.235 41.6556 187.462 41.9113C187.694 42.1746 187.912 42.4496 188.116 42.7351C188.322 43.0243 188.515 43.3252 188.696 43.6376C188.876 43.9511 189.044 44.2771 189.198 44.6156C189.353 44.9541 189.494 45.3041 189.621 45.6655C189.753 46.039 189.869 46.4209 189.968 46.8112C190.068 47.2014 190.151 47.5984 190.217 48.0022C190.283 48.4056 190.333 48.8156 190.367 49.2322C190.402 49.6488 190.42 50.0705 190.42 50.4971C190.418 50.9235 190.401 51.3484 190.367 51.772C190.334 52.1955 190.284 52.6156 190.217 53.0322C190.15 53.4506 190.067 53.8648 189.967 54.2748C189.868 54.6848 189.752 55.0901 189.62 55.4907C189.493 55.8778 189.352 56.2561 189.197 56.6255C189.043 56.9952 188.875 57.3549 188.695 57.7045C188.514 58.0541 188.321 58.3937 188.115 58.7231C187.909 59.054 187.691 59.3723 187.461 59.6782C187.23 59.9841 186.991 60.2759 186.743 60.5536C186.495 60.8296 186.238 61.09 185.974 61.3348C185.709 61.5795 185.437 61.8081 185.156 62.0206C184.879 62.2309 184.591 62.427 184.294 62.608C183.995 62.7905 183.686 62.9562 183.368 63.1043C183.06 63.2479 182.743 63.3733 182.42 63.4798C182.104 63.5842 181.782 63.6692 181.455 63.7344C181.131 63.7989 180.804 63.8432 180.475 63.8672L59.9078 72.6832C59.5571 72.7087 59.2046 72.6735 58.8659 72.579C58.6935 72.5311 58.5253 72.4691 58.3631 72.3937C58.1938 72.3149 58.0306 72.2235 57.875 72.1202C57.7173 72.0156 57.5666 71.9008 57.4238 71.7765C57.2741 71.6461 57.1321 71.507 56.9987 71.3599C56.8578 71.2045 56.7251 71.0418 56.6013 70.8725C56.4731 70.6982 56.35 70.5125 56.2319 70.3153C56.1138 70.1181 56.0022 69.9124 55.8969 69.6982C55.7917 69.484 55.6932 69.2614 55.6015 69.0306C55.5095 68.8 55.4244 68.5615 55.3463 68.315C55.2681 68.0685 55.1969 67.8148 55.1327 67.5537C55.065 67.2836 55.0066 67.0086 54.9576 66.7288C54.9086 66.449 54.8668 66.165 54.8321 65.8768C54.7984 65.5887 54.7732 65.2967 54.7565 65.0009C54.7399 64.7051 54.7315 64.406 54.7315 64.1036C54.7326 63.8016 54.7409 63.5009 54.7565 63.2017C54.7722 62.9024 54.7973 62.6054 54.8321 62.3106C54.8658 62.0159 54.9076 61.7236 54.9576 61.4337C55.0076 61.1438 55.066 60.857 55.1327 60.5734C55.1969 60.2991 55.2681 60.0311 55.3463 59.7693C55.4237 59.511 55.5088 59.2565 55.6015 59.0059C55.6943 58.7552 55.7927 58.5122 55.8969 58.2768C56.0018 58.0418 56.1135 57.8137 56.2319 57.5925C56.3503 57.3714 56.4734 57.161 56.6013 56.9613C56.7291 56.7617 56.8616 56.5725 56.9987 56.3937C57.1359 56.2149 57.2776 56.0476 57.4238 55.8917C57.5663 55.7389 57.717 55.594 57.875 55.4574C58.0298 55.3235 58.1928 55.1995 58.3631 55.0861C58.5238 54.9789 58.6918 54.8832 58.8659 54.7996C59.0324 54.7198 59.2048 54.6529 59.3816 54.5997C59.554 54.548 59.7303 54.5105 59.9088 54.4877" fill="#0085FF"/>
<path d="M59.9088 89.143L180.477 86.2564C181.131 86.2402 181.784 86.3069 182.421 86.4548C182.743 86.5296 183.059 86.6244 183.369 86.7386C183.686 86.8553 183.995 86.9909 184.295 87.1448C184.592 87.2967 184.88 87.465 185.157 87.6489C185.44 87.8363 185.713 88.0389 185.975 88.2556C186.243 88.478 186.5 88.7141 186.744 88.9628C186.992 89.2155 187.231 89.4842 187.462 89.7689C187.692 90.0543 187.91 90.3517 188.116 90.661C188.322 90.9703 188.515 91.2911 188.696 91.6233C188.876 91.9556 189.044 92.299 189.198 92.6534C189.353 93.0079 189.494 93.3724 189.621 93.747C189.753 94.1348 189.869 94.5289 189.968 94.9291C190.068 95.3294 190.151 95.735 190.217 96.1457C190.283 96.5564 190.333 96.9718 190.367 97.3919C190.402 97.8119 190.42 98.2353 190.42 98.662C190.418 99.0887 190.401 99.5119 190.367 99.9316C190.334 100.351 190.284 100.766 190.217 101.177C190.15 101.585 190.067 101.989 189.967 102.389C189.868 102.788 189.752 103.182 189.62 103.569C189.493 103.944 189.352 104.309 189.197 104.662C189.043 105.016 188.875 105.358 188.695 105.689C188.514 106.02 188.321 106.34 188.115 106.648C187.909 106.955 187.691 107.25 187.461 107.533C187.23 107.816 186.991 108.084 186.743 108.335C186.499 108.582 186.242 108.816 185.974 109.037C185.712 109.252 185.439 109.453 185.156 109.639C184.878 109.821 184.591 109.987 184.294 110.137C183.994 110.289 183.684 110.423 183.368 110.537C183.058 110.65 182.742 110.742 182.42 110.815C182.102 110.887 181.78 110.94 181.455 110.971C181.129 111.002 180.802 111.013 180.475 111.003L59.9088 107.336C59.7317 107.331 59.5553 107.311 59.3816 107.275C59.2059 107.24 59.0334 107.19 58.8659 107.126C58.6925 107.06 58.5244 106.98 58.3631 106.888C58.1932 106.792 58.0301 106.684 57.875 106.565C57.7171 106.443 57.5664 106.313 57.4239 106.174C57.2741 106.028 57.1322 105.875 56.9988 105.714C56.8619 105.55 56.7294 105.374 56.6013 105.185C56.4731 104.997 56.35 104.798 56.2319 104.59C56.1138 104.38 56.0022 104.163 55.8969 103.938C55.7917 103.713 55.6932 103.48 55.6015 103.24C55.5095 102.996 55.4244 102.748 55.3463 102.495C55.2681 102.242 55.1969 101.982 55.1327 101.714C55.065 101.439 55.0066 101.16 54.9576 100.875C54.9087 100.59 54.8668 100.301 54.8321 100.01C54.7984 99.7171 54.7732 99.422 54.7566 99.1245C54.7399 98.8269 54.7316 98.527 54.7316 98.2246C54.7326 97.925 54.7409 97.6257 54.7566 97.3268C54.7722 97.0279 54.7974 96.7328 54.8321 96.4415C54.8658 96.1492 54.9076 95.8612 54.9576 95.5775C55.0076 95.2939 55.066 95.0132 55.1327 94.7355C55.1973 94.4674 55.2687 94.2064 55.3468 93.9522C55.4249 93.6981 55.5099 93.4513 55.6015 93.2117C55.6929 92.9722 55.7912 92.7401 55.8964 92.5155C56.0016 92.2908 56.1133 92.0744 56.2314 91.8661C56.3498 91.6574 56.4729 91.4595 56.6007 91.2724C56.7286 91.0853 56.8611 90.9098 56.9982 90.7459C57.1317 90.5859 57.2736 90.433 57.4233 90.2881C57.5659 90.1502 57.7166 90.0208 57.8745 89.9007C58.0296 89.7827 58.1927 89.6755 58.3626 89.5799C58.5242 89.4894 58.6924 89.4114 58.8659 89.3466C59.0335 89.2838 59.206 89.2348 59.3816 89.2003C59.5554 89.1663 59.7318 89.1472 59.9088 89.143Z" fill="#0085FF"/>
<path d="M59.9088 121.632L180.477 130.446C180.805 130.47 181.133 130.515 181.456 130.579C181.783 130.644 182.105 130.729 182.421 130.834C182.744 130.94 183.061 131.066 183.369 131.209C183.687 131.357 183.996 131.523 184.295 131.706C184.592 131.887 184.88 132.083 185.157 132.293C185.438 132.507 185.71 132.736 185.975 132.979C186.239 133.223 186.495 133.483 186.744 133.76C186.992 134.037 187.231 134.328 187.462 134.635C187.692 134.943 187.91 135.262 188.116 135.591C188.322 135.921 188.515 136.26 188.696 136.61C188.876 136.96 189.044 137.32 189.198 137.689C189.353 138.058 189.494 138.437 189.621 138.824C189.753 139.224 189.869 139.629 189.968 140.04C190.068 140.451 190.151 140.864 190.217 141.281C190.283 141.698 190.333 142.118 190.367 142.542C190.402 142.965 190.42 143.39 190.42 143.816C190.418 144.243 190.401 144.665 190.367 145.081C190.334 145.498 190.284 145.908 190.217 146.312C190.15 146.717 190.067 147.114 189.967 147.503C189.868 147.893 189.752 148.275 189.62 148.649C189.493 149.011 189.352 149.361 189.197 149.699C189.043 150.037 188.875 150.363 188.695 150.677C188.514 150.99 188.321 151.291 188.115 151.579C187.911 151.865 187.693 152.14 187.461 152.403C187.234 152.659 186.995 152.902 186.743 153.132C186.498 153.356 186.242 153.565 185.974 153.76C185.712 153.949 185.439 154.123 185.156 154.281C184.878 154.437 184.59 154.576 184.294 154.697C183.992 154.821 183.683 154.926 183.368 155.01C183.056 155.092 182.74 155.154 182.42 155.195C182.1 155.236 181.778 155.257 181.455 155.256C181.127 155.255 180.8 155.234 180.475 155.192L59.9088 139.83C59.7303 139.808 59.554 139.77 59.3816 139.718C59.2048 139.665 59.0324 139.598 58.8659 139.519C58.6918 139.435 58.5238 139.339 58.3631 139.232C58.1928 139.119 58.0298 138.995 57.875 138.861C57.717 138.724 57.5663 138.579 57.4238 138.426C57.2794 138.27 57.1377 138.103 56.9987 137.924C56.8619 137.746 56.7294 137.557 56.6013 137.357C56.4731 137.157 56.35 136.946 56.2319 136.726C56.1138 136.506 56.0022 136.278 55.8969 136.041C55.7917 135.805 55.6932 135.562 55.6015 135.312C55.5095 135.062 55.4244 134.806 55.3463 134.544C55.2681 134.282 55.1969 134.014 55.1327 133.74C55.065 133.456 55.0066 133.169 54.9576 132.879C54.9086 132.589 54.8668 132.297 54.8321 132.002C54.7984 131.708 54.7732 131.411 54.7565 131.111C54.7399 130.812 54.7315 130.511 54.7315 130.209C54.7329 129.908 54.7415 129.61 54.7571 129.314C54.7727 129.018 54.7979 128.726 54.8326 128.438C54.8659 128.149 54.9076 127.865 54.9577 127.585C55.0077 127.305 55.066 127.03 55.1327 126.76C55.1969 126.498 55.2681 126.245 55.3463 125.998C55.4234 125.752 55.5083 125.514 55.601 125.283C55.6938 125.052 55.7922 124.829 55.8964 124.615C56.0023 124.403 56.1145 124.198 56.233 124C56.3514 123.802 56.4745 123.616 56.6023 123.443C56.7262 123.273 56.8589 123.111 56.9998 122.955C57.1332 122.808 57.2751 122.669 57.4249 122.539C57.5676 122.414 57.7184 122.299 57.8761 122.195C58.0317 122.092 58.1948 122 58.3642 121.921C58.5264 121.846 58.6945 121.784 58.8669 121.736C59.2056 121.642 59.5581 121.606 59.9088 121.632" fill="#0085FF"/>
<path d="M125.625 123.247C124.861 124.516 123.658 125.461 122.243 125.902C120.828 126.343 119.301 126.249 117.951 125.638C116.601 125.028 115.522 123.943 114.919 122.59C114.317 121.237 114.232 119.71 114.681 118.298L91.3142 70.3097L102.499 63.5316L122.68 114.505C122.757 114.535 122.833 114.566 122.907 114.599C122.982 114.632 123.057 114.666 123.131 114.702C123.205 114.738 123.279 114.775 123.352 114.815C123.425 114.854 123.498 114.896 123.57 114.939C124.944 115.769 125.933 117.11 126.318 118.667C126.704 120.225 126.454 121.872 125.625 123.246L125.625 123.247Z" fill="#9E616A"/>
<path d="M95.7746 88.8142L112.375 84.561C112.375 84.561 111.833 83.3363 110.952 81.3073C110.071 79.2782 108.84 76.4489 107.456 73.2365C106.071 70.0242 104.535 66.4349 103.035 62.8869C101.535 59.339 100.076 55.8335 98.8466 52.7951C97.6176 49.7566 96.2216 47.9369 94.8184 46.917C93.6571 46.0347 92.1944 45.6461 90.7481 45.8354C89.624 46.0027 88.5495 46.4116 87.5986 47.0338C87.1484 47.3138 86.7252 47.6349 86.3343 47.993L82.4854 54.9898L95.7746 88.8142Z" fill="#CCCCCC"/>
<path d="M228.626 85.0139C229.028 85.0435 229.428 85.0957 229.824 85.1701C230.223 85.2447 230.617 85.3414 231.005 85.4596C231.399 85.5799 231.787 85.7214 232.165 85.8835C232.553 86.0494 232.931 86.2354 233.299 86.4407C233.659 86.6431 234.011 86.8633 234.355 87.1011C234.699 87.3389 235.033 87.5944 235.357 87.8676C235.681 88.1402 235.995 88.4308 236.299 88.7394C236.604 89.048 236.898 89.3735 237.18 89.7158C237.462 90.0581 237.73 90.4128 237.983 90.7797C238.236 91.1467 238.473 91.5248 238.694 91.914C238.914 92.3038 239.119 92.7043 239.31 93.1153C239.501 93.5264 239.675 93.947 239.831 94.3772C239.994 94.8233 240.136 95.2741 240.259 95.7296C240.381 96.1851 240.483 96.6444 240.565 97.1075C240.647 97.5706 240.708 98.0369 240.749 98.5063C240.79 98.9757 240.81 99.4469 240.81 99.9202C240.81 100.393 240.79 100.86 240.749 101.322C240.708 101.783 240.647 102.237 240.565 102.683C240.483 103.13 240.381 103.569 240.259 104C240.136 104.431 239.994 104.853 239.833 105.266C239.675 105.665 239.501 106.051 239.312 106.423C239.124 106.793 238.918 107.152 238.695 107.5C238.475 107.842 238.237 108.172 237.983 108.49C237.732 108.805 237.463 109.107 237.18 109.394C236.901 109.677 236.607 109.944 236.299 110.194C235.998 110.44 235.683 110.668 235.357 110.878C234.712 111.293 234.021 111.633 233.299 111.89C232.558 112.155 231.789 112.33 231.007 112.411C230.614 112.452 230.22 112.469 229.825 112.463C229.425 112.458 229.025 112.429 228.627 112.378C228.226 112.327 227.828 112.254 227.435 112.159C227.041 112.064 226.652 111.947 226.271 111.81C225.885 111.671 225.507 111.511 225.138 111.332C224.762 111.15 224.395 110.949 224.04 110.729C223.693 110.513 223.356 110.282 223.028 110.034C222.7 109.787 222.382 109.524 222.074 109.244C221.766 108.964 221.469 108.669 221.183 108.359C220.896 108.048 220.621 107.723 220.357 107.382C220.091 107.041 219.84 106.69 219.605 106.329C219.371 105.968 219.151 105.598 218.946 105.217C218.741 104.837 218.551 104.448 218.377 104.05C218.203 103.652 218.044 103.246 217.9 102.832C217.752 102.403 217.621 101.97 217.51 101.533C217.399 101.097 217.305 100.658 217.231 100.215C217.156 99.7719 217.101 99.3267 217.063 98.8792C217.026 98.4317 217.007 97.9822 217.007 97.5309C217.007 97.0796 217.026 96.6338 217.063 96.1936C217.1 95.7534 217.156 95.3194 217.231 94.8917C217.305 94.4647 217.398 94.0439 217.51 93.6294C217.622 93.2148 217.752 92.8081 217.9 92.4092C218.044 92.0231 218.203 91.6487 218.377 91.2859C218.553 90.9242 218.743 90.5732 218.948 90.2329C219.354 89.5605 219.826 88.9302 220.357 88.3514C220.617 88.0667 220.892 87.7957 221.181 87.5395C221.465 87.2881 221.762 87.0522 222.072 86.8329C222.379 86.6156 222.697 86.4155 223.026 86.2335C223.354 86.0515 223.693 85.8881 224.04 85.744C224.756 85.4458 225.505 85.2334 226.27 85.1112C226.656 85.0498 227.045 85.011 227.435 84.9951C227.832 84.979 228.23 84.9856 228.627 85.0149" fill="#0085FF"/>
<path d="M228.626 133.966C229.028 133.995 229.428 134.047 229.824 134.122C230.223 134.196 230.617 134.293 231.005 134.411C231.399 134.532 231.787 134.673 232.165 134.835C232.553 135.001 232.931 135.187 233.299 135.392C233.659 135.595 234.011 135.815 234.355 136.053C234.699 136.291 235.033 136.546 235.357 136.819C235.681 137.092 235.995 137.383 236.299 137.691C236.604 138 236.898 138.325 237.18 138.668C237.462 139.01 237.73 139.365 237.983 139.731C238.236 140.098 238.473 140.477 238.694 140.866C238.914 141.256 239.119 141.656 239.31 142.067C239.501 142.478 239.675 142.899 239.831 143.329C239.994 143.775 240.136 144.226 240.259 144.681C240.381 145.137 240.483 145.596 240.565 146.059C240.647 146.522 240.708 146.989 240.749 147.458C240.79 147.927 240.81 148.399 240.81 148.872C240.81 149.345 240.79 149.812 240.749 150.273C240.708 150.734 240.647 151.188 240.565 151.635C240.483 152.082 240.381 152.521 240.259 152.952C240.136 153.382 239.994 153.804 239.833 154.218C239.675 154.616 239.501 155.002 239.312 155.375C239.124 155.744 238.918 156.104 238.695 156.452C238.475 156.794 238.237 157.124 237.983 157.442C237.732 157.757 237.463 158.059 237.18 158.346C236.901 158.628 236.607 158.896 236.299 159.146C235.998 159.391 235.683 159.62 235.357 159.83C234.712 160.245 234.021 160.584 233.299 160.842C232.558 161.107 231.789 161.282 231.007 161.363C230.614 161.403 230.22 161.421 229.825 161.415C229.425 161.409 229.025 161.381 228.627 161.33C228.226 161.279 227.828 161.206 227.435 161.111C227.041 161.016 226.652 160.899 226.271 160.761C225.885 160.622 225.507 160.463 225.138 160.284C224.762 160.102 224.395 159.9 224.04 159.681C223.693 159.465 223.356 159.233 223.028 158.986C222.7 158.739 222.382 158.475 222.074 158.196C221.766 157.916 221.469 157.621 221.183 157.31C220.896 157 220.621 156.674 220.357 156.333C220.091 155.993 219.84 155.642 219.605 155.281C219.371 154.92 219.151 154.549 218.946 154.169C218.741 153.789 218.551 153.4 218.377 153.002C218.203 152.604 218.044 152.198 217.9 151.783C217.752 151.354 217.621 150.922 217.51 150.485C217.399 150.049 217.305 149.609 217.231 149.167C217.156 148.724 217.101 148.278 217.063 147.831C217.026 147.383 217.007 146.934 217.007 146.483C217.007 146.031 217.026 145.586 217.063 145.145C217.1 144.705 217.156 144.271 217.231 143.843C217.305 143.416 217.398 142.996 217.51 142.581C217.622 142.167 217.752 141.76 217.9 141.361C218.044 140.975 218.203 140.6 218.377 140.238C218.553 139.876 218.743 139.525 218.948 139.185C219.354 138.512 219.826 137.882 220.357 137.303C220.617 137.018 220.892 136.747 221.181 136.491C221.465 136.24 221.762 136.004 222.072 135.785C222.379 135.567 222.697 135.367 223.026 135.185C223.354 135.003 223.693 134.84 224.04 134.696C224.756 134.398 225.505 134.185 226.27 134.063C226.656 134.002 227.045 133.963 227.435 133.947C227.832 133.931 228.23 133.937 228.627 133.967" fill="#0085FF"/>
<path d="M228.624 31.9835C229.024 31.9737 229.424 31.9868 229.822 32.0225C230.219 32.0582 230.613 32.1166 231.003 32.1975C231.396 32.2794 231.783 32.3838 232.163 32.51C232.549 32.6377 232.928 32.7871 233.297 32.9573C233.659 33.1238 234.011 33.3093 234.353 33.5129C234.698 33.7187 235.033 33.9422 235.355 34.1826C235.682 34.4269 235.997 34.6877 236.298 34.9638C236.604 35.2447 236.898 35.5424 237.18 35.8569C237.462 36.1718 237.73 36.5006 237.983 36.8432C238.235 37.1859 238.473 37.541 238.694 37.9087C238.915 38.2812 239.121 38.6629 239.312 39.0538C239.503 39.4447 239.676 39.8485 239.833 40.2651C239.994 40.6946 240.136 41.1312 240.259 41.5749C240.381 42.0186 240.483 42.468 240.565 42.9231C240.646 43.3797 240.708 43.84 240.749 44.3042C240.79 44.7684 240.81 45.237 240.81 45.7102C240.81 46.1827 240.79 46.6514 240.749 47.1163C240.708 47.5812 240.646 48.041 240.565 48.4958C240.483 48.9506 240.381 49.3993 240.259 49.842C240.136 50.2846 239.994 50.7203 239.833 51.1491C239.675 51.5633 239.501 51.966 239.312 52.3573C239.121 52.7471 238.914 53.1254 238.693 53.492C238.471 53.8586 238.234 54.2123 237.981 54.5528C237.729 54.8944 237.461 55.2215 237.178 55.5339C236.896 55.8464 236.602 56.1415 236.298 56.4192C235.999 56.6943 235.685 56.954 235.36 57.1972C235.037 57.4355 234.703 57.6568 234.358 57.8602C234.016 58.0617 233.663 58.2449 233.302 58.409C232.932 58.5769 232.554 58.7238 232.168 58.8491C231.408 59.0948 230.623 59.2521 229.827 59.3178C229.03 59.3838 228.229 59.3595 227.437 59.2454C227.045 59.1887 226.656 59.1098 226.273 59.009C225.889 58.9077 225.51 58.785 225.14 58.6413C224.765 58.496 224.398 58.3304 224.042 58.145C223.694 57.9644 223.356 57.7661 223.028 57.5508C222.699 57.3342 222.38 57.1011 222.074 56.8525C221.766 56.6025 221.469 56.3362 221.183 56.0536C220.896 55.7711 220.621 55.4721 220.357 55.1569C220.09 54.8417 219.84 54.515 219.605 54.1768C219.37 53.8387 219.151 53.4894 218.946 53.129C218.74 52.7687 218.55 52.3981 218.377 52.0172C218.203 51.6364 218.044 51.2463 217.9 50.847C217.752 50.4325 217.621 50.0124 217.51 49.5868C217.398 49.1612 217.305 48.7307 217.231 48.2953C217.156 47.8582 217.1 47.4177 217.063 46.9736C217.025 46.5296 217.007 46.0819 217.007 45.6306C217.007 45.1796 217.026 44.7321 217.063 44.288C217.1 43.844 217.156 43.4047 217.231 42.97C217.305 42.535 217.398 42.1048 217.51 41.6795C217.622 41.2542 217.752 40.8349 217.9 40.4214C218.044 40.0218 218.203 39.6321 218.377 39.2523C218.55 38.8724 218.741 38.5025 218.948 38.1425C219.153 37.7856 219.373 37.4384 219.608 37.101C219.843 36.7635 220.092 36.4386 220.357 36.1261C220.619 35.814 220.894 35.5173 221.181 35.2361C221.468 34.9549 221.765 34.6905 222.072 34.443C222.378 34.1959 222.696 33.9644 223.025 33.7493C223.353 33.5361 223.691 33.3398 224.039 33.1614C224.396 32.9782 224.763 32.8148 225.137 32.6719C225.508 32.5306 225.886 32.4103 226.27 32.3115C226.654 32.2131 227.043 32.1366 227.435 32.0824C227.83 32.0279 228.228 31.996 228.627 31.9866L228.624 31.9835ZM228.627 30.6836C226.877 30.7315 225.16 31.1756 223.607 31.9824C222.063 32.7894 220.695 33.8944 219.581 35.2335C218.417 36.6291 217.51 38.2205 216.903 39.9334C215.603 43.6203 215.603 47.6404 216.903 51.3272C217.511 53.045 218.417 54.642 219.581 56.0443C220.695 57.3898 222.063 58.5027 223.607 59.3194C225.159 60.1358 226.875 60.591 228.627 60.651C230.39 60.7088 232.143 60.3595 233.749 59.6303C235.371 58.8878 236.821 57.8186 238.01 56.4895C239.273 55.0821 240.261 53.4512 240.923 51.6808C242.359 47.8267 242.359 43.585 240.923 39.7309C240.26 37.9551 239.272 36.3182 238.01 34.9034C236.822 33.5669 235.372 32.4886 233.749 31.7351C232.144 30.9955 230.391 30.6351 228.624 30.6815L228.627 30.6836Z" fill="#0085FF"/>
<path d="M227.117 49.9592L222.14 41.6254L223.321 41.0068L227.421 47.8531L244.636 31.5918L245.678 32.4841L227.117 49.9592Z" fill="#0085FF"/>
<path d="M79.2787 218.066L89.4374 218.026L86.1616 244.561L79.2787 244.595V218.066Z" fill="#9E616A"/>
<path d="M77.5236 251.272L99.705 251.155V250.874C99.7053 250.305 99.6499 249.738 99.5393 249.179C99.3212 248.078 98.8865 247.031 98.2604 246.099C97.6245 245.154 96.8094 244.344 95.8613 243.713C94.926 243.091 93.8764 242.661 92.7736 242.448C92.2145 242.34 91.6462 242.288 91.0768 242.292L77.5236 242.358V251.272Z" fill="#2F2E41"/>
<path d="M111.806 217.94L121.935 217.9L118.67 244.399L111.806 244.433V217.94Z" fill="#9E616A"/>
<path d="M110.055 251.099L132.178 250.983V250.703C132.179 250.135 132.123 249.568 132.013 249.011C131.795 247.911 131.362 246.865 130.737 245.934C130.104 244.991 129.29 244.181 128.344 243.55C127.411 242.93 126.364 242.501 125.264 242.289C124.707 242.181 124.14 242.129 123.572 242.132L110.055 242.198V251.099Z" fill="#2F2E41"/>
<path d="M112.236 109.487L129.27 173.031L123.035 233.943L109.23 234.324L112.236 179.324L95.0132 151.876L91.2779 234.698L78.7551 233.813L71.7888 162.603C69.4227 157.043 67.6875 151.235 66.6157 145.288C65.7733 140.62 65.3637 135.885 65.392 131.141C65.4062 127.948 65.6517 124.76 66.1265 121.603C66.2962 120.426 66.5259 119.259 66.8147 118.105L71.8935 112.959L112.236 109.487Z" fill="#2F2E41"/>
<path d="M89.6675 120.114C92.5322 120.114 95.22 120.023 97.6574 119.841C100.147 119.67 102.624 119.344 105.073 118.865C107.158 118.476 109.189 117.837 111.121 116.962C112.676 116.29 114.029 115.223 115.044 113.867L115.16 113.698L110.504 83.4093L105.483 49.3529C105.153 47.0992 104.005 45.0457 102.258 43.5832C100.511 42.1207 98.2872 41.3514 96.0096 41.4217L80.2854 41.9033C79.1063 41.9395 77.9464 42.2119 76.8745 42.7045C75.8027 43.197 74.8406 43.8997 74.0455 44.7708C73.2503 45.6419 72.6382 46.6638 72.2454 47.7758C71.8527 48.8878 71.6872 50.0672 71.7589 51.2443L73.8231 85.1138L66.2092 118.522L66.7483 118.598C66.9653 118.626 67.8009 118.737 69.1098 118.884C70.8207 119.076 72.5676 119.249 74.302 119.399C76.7559 119.61 79.1571 119.776 81.4389 119.893C84.3327 120.041 87.1063 120.112 89.6675 120.114Z" fill="#CCCCCC"/>
<path d="M98.3931 35.4033C98.3973 35.4033 98.4015 35.4033 98.4057 35.4033C98.7356 35.4031 99.0622 35.338 99.3669 35.2116C99.6716 35.0852 99.9484 34.9 100.181 34.6667C100.415 34.4334 100.599 34.1564 100.726 33.8517C100.852 33.547 100.916 33.2204 100.916 32.8906V18.8769C100.919 16.3662 100.416 13.8806 99.4382 11.568C97.5235 7.05497 93.9405 3.45462 89.4358 1.51726C86.5867 0.295719 83.4791 -0.200445 80.3911 0.073199C77.3032 0.346843 74.3313 1.38175 71.7417 3.08525C69.152 4.78876 67.0255 7.10767 65.5524 9.83435C64.0793 12.561 63.3057 15.6103 63.3008 18.7092V32.7443C63.3004 33.0821 63.3681 33.4165 63.4998 33.7275C63.7579 34.3343 64.2406 34.8179 64.847 35.0773C65.1582 35.2101 65.4928 35.279 65.8311 35.2799L98.3952 35.4033H98.3931Z" fill="#2F2E41"/>
<path d="M73.6163 14.0708C72.3046 16.4657 71.7323 19.1954 71.9716 21.9152C72.211 24.6351 73.2513 27.223 74.9611 29.3522C76.6709 31.4813 78.9736 33.0563 81.5783 33.878C84.1831 34.6998 86.973 34.7315 89.5957 33.9692C91.3324 33.4703 92.9529 32.6319 94.3631 31.5025C95.7733 30.3731 96.9453 28.9752 97.8113 27.3898C99.1198 24.996 99.6901 22.2685 99.4501 19.5511C99.2101 16.8338 98.1707 14.2483 96.4628 12.1207C94.7549 9.99303 92.4551 8.41849 89.8533 7.5956C87.2515 6.7727 84.4641 6.73829 81.8428 7.49669C80.1045 7.99373 78.4822 8.83082 77.0701 9.95943C75.6579 11.088 74.484 12.4857 73.6163 14.0713V14.0708Z" fill="#9E616A"/>
<path d="M105.363 20.0174C105.364 18.0317 104.967 16.066 104.194 14.2369C102.68 10.6682 99.8461 7.82144 96.2838 6.29007C94.4561 5.50725 92.4895 5.09992 90.5012 5.09231L87.6953 5.07825C87.6638 5.07807 87.6322 5.07798 87.6007 5.078C85.6578 5.0792 83.7341 5.46293 81.9395 6.20728C80.1449 6.95164 78.5146 8.04204 77.1416 9.41624C75.7685 10.7904 74.6798 12.4215 73.9373 14.2163C73.1949 16.0112 72.8134 17.9346 72.8146 19.8768V20.1575L78.7504 20.1814L80.7743 14.529L81.1791 20.1924L84.245 20.2059L85.2655 17.3542L85.4702 20.2095L105.36 20.2986L105.363 20.0174Z" fill="#2F2E41"/>
<path d="M129.259 49.4979C130.172 49.7212 131.027 50.1397 131.763 50.7244C132.338 51.1794 132.83 51.7308 133.217 52.354C133.979 53.5874 134.315 55.037 134.173 56.4799C134.101 57.2089 133.903 57.9198 133.588 58.5811C133.2 59.4053 132.641 60.1378 131.949 60.7302C131.257 61.3227 130.447 61.7615 129.572 62.0179C128.698 62.2743 127.779 62.3424 126.876 62.2176C125.973 62.0928 125.107 61.778 124.335 61.294C124.278 61.2573 124.222 61.22 124.166 61.1822C124.11 61.1444 124.055 61.1058 124.002 61.0664C123.947 61.027 123.894 60.9869 123.842 60.9463C123.79 60.9056 123.738 60.8644 123.686 60.8225L90.9321 72.4755C89.9243 72.8338 88.8274 72.8552 87.8064 72.5364C86.7853 72.2177 85.8955 71.576 85.2709 70.708L77.5057 59.9605L86.894 53.6408L91.8207 59.2355L121.796 53.2749C121.829 53.1973 121.863 53.12 121.898 53.0431C121.933 52.9663 121.969 52.8898 122.007 52.8136C122.046 52.7376 122.086 52.662 122.127 52.5868C122.168 52.5116 122.212 52.437 122.257 52.363C122.973 51.2079 124.035 50.3087 125.293 49.794C126.551 49.2794 127.939 49.1757 129.259 49.4979Z" fill="#9E616A"/>
<path d="M91.2922 55.7072C90.3123 54.4849 88.9425 52.8979 87.5506 51.3238C86.1588 49.7497 84.7464 48.1896 83.6809 47.0225C82.6155 45.8554 81.8985 45.0819 81.8985 45.0819C80.9151 43.5955 79.4473 42.4952 77.7443 41.9679C76.0414 41.4406 74.2084 41.5189 72.5566 42.1894C70.9049 42.8599 69.5362 44.0813 68.6832 45.6461C67.8301 47.2109 67.5453 49.0227 67.877 50.7736C68.0665 51.7816 68.4581 52.7409 69.0281 53.5937C69.0281 53.5937 70.0967 54.9915 71.7097 57.0778C73.3227 59.1642 75.4809 61.9416 77.6577 64.7027C79.8345 67.4638 82.0327 70.2107 83.7275 72.2383C85.4224 74.2659 86.6151 75.5758 86.7831 75.4637L92.695 57.8971C92.863 57.7849 92.272 56.9296 91.2922 55.7072Z" fill="#CCCCCC"/>
<path d="M87.7833 34.9617C87.8763 35.4148 87.8402 35.8848 87.6792 36.3183C87.5983 36.5402 87.4868 36.7497 87.3478 36.9406C87.2288 37.1033 87.091 37.2514 86.9373 37.3817C86.4818 37.7665 85.9041 37.9764 85.3077 37.9738C85.2706 37.9735 85.2334 37.9724 85.1962 37.9707C85.1591 37.969 85.1219 37.9664 85.0848 37.9629C85.0473 37.9598 85.0099 37.9556 84.9728 37.9504C84.9356 37.9452 84.8983 37.9393 84.8607 37.9327L82.754 37.5499L79.8522 31.3528V37.0292L70.2739 35.3054V11.2175L86.3314 11.2946L85.9344 11.7555C84.6168 13.3019 83.7515 15.1817 83.4338 17.1881C83.1223 19.2202 83.1614 21.2907 83.5495 23.3096C83.9267 25.3525 84.4992 27.3545 85.2593 29.288C85.9236 31.0009 86.6862 32.6741 87.5431 34.2993C87.6538 34.5078 87.7347 34.7308 87.7833 34.9617Z" fill="#2F2E41"/>
<path d="M199.006 252H0.521011C0.382843 252 0.250336 251.945 0.152634 251.847C0.0549316 251.75 3.05176e-05 251.617 3.05176e-05 251.479C3.05176e-05 251.341 0.0549316 251.209 0.152634 251.111C0.250336 251.013 0.382843 250.958 0.521011 250.958H199.006C199.145 250.958 199.277 251.013 199.375 251.111C199.473 251.209 199.527 251.341 199.527 251.479C199.527 251.617 199.473 251.75 199.375 251.847C199.277 251.945 199.145 252 199.006 252Z" fill="#CACACA"/>
</g>
<defs>
<clipPath id="clip0_180_165">
<rect width="242" height="252" fill="white" transform="matrix(-1 0 0 1 242 0)"/>
</clipPath>
</defs>
</svg>
