<svg width="714" height="576" viewBox="0 0 714 576" fill="none" xmlns="http://www.w3.org/2000/svg">
<g clip-path="url(#clip0_197_839)">
<path d="M643.996 542.663C643.996 547.856 526.062 576 380.582 576C235.102 576 117.168 547.856 117.168 542.663C117.168 537.47 235.102 546.082 380.582 546.082C526.062 546.082 643.996 537.47 643.996 542.663Z" fill="#3F3D56"/>
<path opacity="0.1" d="M643.996 542.663C643.996 547.856 526.062 576 380.582 576C235.102 576 117.168 547.856 117.168 542.663C117.168 537.47 235.102 546.082 380.582 546.082C526.062 546.082 643.996 537.47 643.996 542.663Z" fill="black"/>
<path d="M380.582 552.066C526.062 552.066 643.996 547.856 643.996 542.663C643.996 537.47 526.062 533.261 380.582 533.261C235.103 533.261 117.168 537.47 117.168 542.663C117.168 547.856 235.103 552.066 380.582 552.066Z" fill="#3F3D56"/>
<path d="M518.276 538.389V369.142" stroke="#3F3D56" stroke-width="2" stroke-miterlimit="10"/>
<path d="M206.113 540.954V456.33" stroke="#3F3D56" stroke-width="2" stroke-miterlimit="10"/>
<path d="M206.113 468.297C212.726 468.297 218.086 462.939 218.086 456.33C218.086 449.721 212.726 444.363 206.113 444.363C199.5 444.363 194.14 449.721 194.14 456.33C194.14 462.939 199.5 468.297 206.113 468.297Z" fill="#3F3D56"/>
<path d="M206.113 508.485C206.113 508.485 207.823 471.716 242.888 475.99L206.113 508.485Z" fill="#3F3D56"/>
<path d="M461.83 540.099V455.475" stroke="#3F3D56" stroke-width="2" stroke-miterlimit="10"/>
<path d="M461.83 467.442C468.443 467.442 473.803 462.085 473.803 455.475C473.803 448.866 468.443 443.508 461.83 443.508C455.217 443.508 449.856 448.866 449.856 455.475C449.856 462.085 455.217 467.442 461.83 467.442Z" fill="#3F3D56"/>
<path d="M461.83 507.631C461.83 507.631 460.12 470.861 425.055 475.135L461.83 507.631Z" fill="#3F3D56"/>
<path d="M628.602 540.099V455.475" stroke="#3F3D56" stroke-width="2" stroke-miterlimit="10"/>
<path d="M628.602 467.442C635.214 467.442 640.575 462.085 640.575 455.475C640.575 448.866 635.214 443.508 628.602 443.508C621.989 443.508 616.628 448.866 616.628 455.475C616.628 462.085 621.989 467.442 628.602 467.442Z" fill="#3F3D56"/>
<path d="M628.602 507.631C628.602 507.631 626.891 470.861 591.827 475.135L628.602 507.631Z" fill="#3F3D56"/>
<path d="M165.917 538.389V369.142" stroke="#3F3D56" stroke-width="2" stroke-miterlimit="10"/>
<path d="M165.917 381.109C172.529 381.109 177.89 375.751 177.89 369.142C177.89 362.533 172.529 357.175 165.917 357.175C159.304 357.175 153.943 362.533 153.943 369.142C153.943 375.751 159.304 381.109 165.917 381.109Z" fill="#3F3D56"/>
<path d="M129.141 475.99C135.754 475.99 141.115 470.632 141.115 464.023C141.115 457.414 135.754 452.056 129.141 452.056C122.529 452.056 117.168 457.414 117.168 464.023C117.168 470.632 122.529 475.99 129.141 475.99Z" fill="#3F3D56"/>
<path d="M165.917 417.878C165.917 417.878 164.206 381.109 129.142 385.383L165.917 417.878Z" fill="#3F3D56"/>
<path d="M165.917 535.1C165.917 535.1 173.614 467.442 129.142 464.023" stroke="#3F3D56" stroke-width="2" stroke-miterlimit="10"/>
<path d="M518.276 381.109C524.888 381.109 530.249 375.751 530.249 369.142C530.249 362.533 524.888 357.175 518.276 357.175C511.663 357.175 506.302 362.533 506.302 369.142C506.302 375.751 511.663 381.109 518.276 381.109Z" fill="#3F3D56"/>
<path d="M518.276 417.878C518.276 417.878 519.986 381.109 555.051 385.383L518.276 417.878Z" fill="#3F3D56"/>
<path d="M518.276 535.1C518.276 535.1 510.578 467.442 555.051 464.023" stroke="#3F3D56" stroke-width="2" stroke-miterlimit="10"/>
<path d="M555.051 475.99C561.664 475.99 567.024 470.632 567.024 464.023C567.024 457.414 561.664 452.056 555.051 452.056C548.438 452.056 543.078 457.414 543.078 464.023C543.078 470.632 548.438 475.99 555.051 475.99Z" fill="#3F3D56"/>
<path d="M505.533 349.29L441.968 335.72L428.39 399.25L491.955 412.821L505.533 349.29Z" fill="white"/>
<path d="M430.158 318.745C430.158 318.745 453.506 335.413 445.723 342.08C437.941 348.747 422.376 322.079 422.376 322.079L430.158 318.745Z" fill="#FFB9B9"/>
<path d="M322.316 344.302C322.316 344.302 326.763 399.862 327.875 407.64C328.987 415.418 330.098 485.423 332.322 493.201C334.545 500.979 336.769 519.87 336.769 519.87H350.11C350.11 519.87 348.999 485.423 352.334 472.089C355.669 458.754 354.557 422.085 354.557 422.085C354.557 422.085 361.228 356.525 357.893 347.636C354.557 338.746 322.316 344.302 322.316 344.302Z" fill="#FFB9B9"/>
<path d="M340.104 516.536C340.104 516.536 334.546 519.87 334.546 522.092C334.546 524.314 335.657 529.87 334.546 532.093C333.434 534.315 325.651 543.205 330.098 545.427C334.546 547.649 354.557 545.427 354.557 545.427C354.557 545.427 353.446 529.87 352.334 528.759C351.222 527.648 353.446 516.536 353.446 516.536H340.104Z" fill="#2F2E41"/>
<path d="M407.305 342.941C407.305 342.941 408.717 398.66 408.428 406.512C408.14 414.364 414.386 484.098 412.992 492.067C411.597 500.035 411.37 519.055 411.37 519.055L398.102 520.454C398.102 520.454 395.59 486.081 390.873 473.17C386.156 460.26 383.41 423.677 383.41 423.677C383.41 423.677 369.891 359.179 372.274 349.988C374.658 340.798 407.305 342.941 407.305 342.941Z" fill="#FFB9B9"/>
<path d="M407.703 516.089C407.703 516.089 413.581 518.821 413.815 521.031C414.048 523.242 413.526 528.883 414.865 530.977C416.204 533.07 424.877 541.094 420.688 543.771C416.499 546.447 396.364 546.337 396.364 546.337C396.364 546.337 395.836 530.75 396.825 529.528C397.814 528.306 394.436 517.489 394.436 517.489L407.703 516.089Z" fill="#2F2E41"/>
<path d="M337.881 260.963C337.881 260.963 328.987 262.075 325.651 280.965C322.316 299.855 310.086 347.636 320.093 350.969C330.099 354.303 360.116 360.97 361.228 358.748C362.34 356.525 364.564 350.969 364.564 350.969C364.564 350.969 361.228 360.97 365.675 360.97C370.122 360.97 413.482 354.303 412.37 350.969C411.258 347.636 409.035 323.19 409.035 323.19C409.035 323.19 402.364 282.076 395.693 275.409C393.763 273.556 392.264 271.302 391.303 268.805C390.343 266.309 389.944 263.631 390.134 260.963H337.881Z" fill="#2F2E41"/>
<path d="M321.204 252.074C321.204 252.074 335.657 248.741 337.881 253.185C340.104 257.63 332.322 264.297 328.987 264.297C325.651 264.297 320.092 260.964 320.092 260.964L321.204 252.074Z" fill="#FFB9B9"/>
<path d="M351.222 157.623C362.274 157.623 371.234 148.668 371.234 137.622C371.234 126.576 362.274 117.621 351.222 117.621C340.17 117.621 331.21 126.576 331.21 137.622C331.21 148.668 340.17 157.623 351.222 157.623Z" fill="#FFB9B9"/>
<path d="M354.558 152.067C354.558 152.067 357.893 167.624 355.669 167.624C353.446 167.624 372.346 177.624 372.346 177.624L386.799 175.402L391.246 168.735C391.246 168.735 367.899 153.178 367.899 144.289C367.899 135.399 354.558 152.067 354.558 152.067Z" fill="#FFB9B9"/>
<path d="M364.564 167.624C364.564 167.624 361.228 165.401 360.116 165.401H351.222C350.11 165.401 335.657 168.735 335.657 168.735L326.763 218.738C326.763 218.738 342.328 244.296 331.21 264.297C331.21 264.297 334.546 262.074 350.11 263.186C365.675 264.297 393.47 267.63 394.582 267.63C395.693 267.63 395.693 258.741 394.582 256.519C393.47 254.296 395.693 255.407 395.693 249.851C395.693 244.296 399.029 234.295 399.029 234.295L414.594 177.624C414.594 177.624 394.582 166.513 391.246 167.624C387.911 168.735 377.905 172.068 375.681 170.957C373.458 169.846 364.564 167.624 364.564 167.624Z" fill="#FFC700"/>
<path d="M338.993 169.846L335.657 168.735C335.657 168.735 328.987 167.624 321.204 174.291C313.422 180.958 284.516 200.959 284.516 200.959C284.516 200.959 273.398 209.849 276.733 219.85C280.068 229.85 285.627 254.296 302.304 253.185C302.304 253.185 312.31 266.519 317.869 264.297C323.428 262.075 327.875 253.185 324.539 252.074C321.204 250.963 312.31 239.851 312.31 239.851L323.428 218.738H326.763L338.993 212.071V169.846Z" fill="#FFC700"/>
<path d="M405.699 176.513L414.593 177.624C414.593 177.624 422.376 180.958 421.264 195.403C420.152 209.849 427.935 275.409 424.599 283.187C424.599 283.187 435.717 320.967 433.494 322.079C431.27 323.19 417.929 329.857 419.04 325.412C420.152 320.967 406.811 289.854 406.811 289.854C406.811 289.854 391.246 273.186 397.917 249.851V230.961L405.699 176.513Z" fill="#FFC700"/>
<path d="M338.437 163.735L352.89 163.145V155.956L354.033 163.098L377.349 162.147V158.179L377.98 162.122L392.914 161.512L384.02 132.302C384.02 126.198 381.593 120.344 377.275 116.028C372.956 111.711 367.099 109.287 360.992 109.287H355.35C346.009 109.287 330.654 115.507 330.654 124.843C338.629 139.04 349.801 153.97 338.437 163.735Z" fill="#2F2E41"/>
<path d="M238.612 15.2603H173.614V80.224H238.612V15.2603Z" stroke="#3F3D56" stroke-width="2" stroke-miterlimit="10"/>
<path d="M697.021 14.4058H470.382V122.109H697.021V14.4058Z" fill="white"/>
<path d="M713.271 0.729004H486.632V108.432H713.271V0.729004Z" stroke="#3F3D56" stroke-width="2" stroke-miterlimit="10"/>
<path d="M226.639 197.33H0V305.033H226.639V197.33Z" fill="white"/>
<path d="M242.888 183.653H16.2495V291.356H242.888V183.653Z" stroke="#3F3D56" stroke-width="2" stroke-miterlimit="10"/>
</g>
<defs>
<clipPath id="clip0_197_839">
<rect width="714" height="576" fill="white"/>
</clipPath>
</defs>
</svg>
