<svg width="860" height="659" viewBox="0 0 860 659" fill="none" xmlns="http://www.w3.org/2000/svg">
<path d="M583.327 544.699C583.327 544.699 550.443 557.023 534.95 585.73C519.456 614.437 527.219 648.657 527.219 648.657C527.219 648.657 560.102 636.334 575.596 607.626C591.09 578.919 583.327 544.699 583.327 544.699Z" fill="#3F3D56"/>
<path d="M627.5 587.505C627.5 587.505 616.726 620.901 588.753 637.715C560.78 654.528 526.201 648.392 526.201 648.392C526.201 648.392 536.974 614.996 564.947 598.182C592.92 581.368 627.5 587.505 627.5 587.505Z" fill="white"/>
<path d="M860 656.509H-257V659H860V656.509Z" fill="#2F2E41"/>
<path d="M194.129 541.894C178.203 538.987 163.039 532.865 149.563 523.901L151.037 521.892C164.232 530.654 179.079 536.632 194.668 539.46C218.269 543.696 253.586 541.616 287.802 507.666C354.39 441.596 417.944 434.941 418.578 434.882L418.81 437.363C418.185 437.421 355.52 443.986 289.56 509.434C262.616 536.167 234.966 543.563 212.619 543.563C206.418 543.558 200.23 542.999 194.129 541.894Z" fill="#2F2E41"/>
<path d="M385.216 489.614C393.478 489.614 400.176 482.923 400.176 474.668C400.176 466.414 393.478 459.723 385.216 459.723C376.954 459.723 370.256 466.414 370.256 474.668C370.256 482.923 376.954 489.614 385.216 489.614Z" fill="#2F2E41"/>
<path d="M279.25 559.361C287.512 559.361 294.21 552.67 294.21 544.415C294.21 536.161 287.512 529.47 279.25 529.47C270.988 529.47 264.291 536.161 264.291 544.415C264.291 552.67 270.988 559.361 279.25 559.361Z" fill="#2F2E41"/>
<path d="M595.087 657.754C595.087 657.754 573.318 651.012 529.935 644.251L530.884 630.976C538.364 556.248 488.498 444.154 488.498 444.154C507.548 499.849 516.608 558.466 515.263 617.307C508.609 605.709 495.754 593.196 471.045 585.516C471.045 585.516 503.18 613.049 512.383 641.69C470.19 636.107 427.739 632.692 385.196 631.457L396.246 606.067L375.053 627.24C375.053 627.24 366.326 563.72 347.626 561.229L361.339 623.504C361.339 623.504 345.133 611.049 341.393 612.294L350.615 630.721C288.508 630.078 214.625 632.883 129.003 641.871L139.435 617.899L118.242 639.072C118.242 639.072 109.516 575.553 90.8159 573.062L104.529 635.336C104.529 635.336 88.3226 622.881 84.5827 624.126L95.3573 645.655C67.377 648.98 38.2291 653.013 7.91357 657.754H595.087Z" fill="#3F3D56"/>
<path d="M251.195 55.4124C237.607 70.0441 273.133 105.555 273.133 105.555C273.133 105.555 201.193 117.674 206.901 116.94C212.609 116.205 209.652 55.7473 209.652 55.7473C209.652 55.7473 264.783 40.7807 251.195 55.4124Z" fill="#A0616A"/>
<path d="M301.266 212.009L238.76 243.911L204.814 263.348C204.814 263.348 164.799 313.704 157.333 343.547C149.867 373.39 189.658 428.547 194.164 434.247C196.488 437.153 198.568 440.245 200.383 443.492C201.938 445.804 215.38 442.819 230.058 439.674C244.736 436.53 228.11 414.81 228.11 414.81C228.11 414.81 209.376 366.989 207.98 365.913C206.677 364.908 202.244 356.639 205.433 353.02C208.423 349.822 210.733 346.052 212.221 341.937C213.456 338.398 215.216 335.064 217.441 332.046C217.441 332.046 273.99 286.167 291.651 270.546C309.312 254.925 356.265 264.744 356.265 264.744C356.265 264.744 334.097 349.686 328.552 355.423C323.007 361.159 322.407 366.26 324.917 375.983C327.428 385.706 360.175 376.469 360.175 376.469L372.267 343.519C372.267 343.519 391.901 300.809 402.56 256.741C407.89 234.707 397.713 221.575 386.203 213.952C375.136 206.781 361.739 204.117 348.767 206.507L290.986 216.634L331.062 199.385L301.266 212.009Z" fill="#2F2E41"/>
<path d="M70.717 129.909L-3.90028 106.86C-3.90028 106.86 -34.0431 68.0423 -19.8428 61.1921C-5.64244 54.342 12.136 94.7506 12.136 94.7506L64.1039 98.1103L70.717 129.909Z" fill="#A0616A"/>
<path d="M384.395 89.5496L450.732 48.3645C450.732 48.3645 470.047 3.18324 454.573 0.151152C439.099 -2.88093 432.148 40.7094 432.148 40.7094L382.728 57.1142L384.395 89.5496Z" fill="#A0616A"/>
<path d="M396.81 42.9854L398.075 91.7976L286.265 111.756C302.712 146.909 298.534 186.917 339.93 204.452L200.4 272.636C206.617 219.033 180.681 178.657 156.439 128.46C126.912 117.767 92.6156 125.607 56.2875 141.346L49.7588 90.7L204.192 79.6202L229.559 89.3092L256.759 77.8797C296.736 66.0134 354.134 43.4532 396.81 42.9854Z" fill="white"/>
<path d="M327.231 374.429C323.84 377.377 320.683 401.643 320.561 410.449C320.44 419.255 332.045 421.529 338.387 421.969C344.728 422.409 343.97 426.274 348.157 429.502C352.344 432.731 366.104 432.216 384.173 426.124C402.241 420.032 372.014 400.062 369.382 399.145C366.75 398.227 355.669 370.771 355.669 370.771C355.669 370.771 330.622 371.482 327.231 374.429Z" fill="#2F2E41"/>
<path d="M228.406 429.841C232.434 431.834 241.642 454.509 243.993 462.997C246.344 471.485 235.694 476.622 229.671 478.653C223.648 480.684 225.362 484.231 222.13 488.414C218.899 492.597 205.457 495.582 186.433 494.262C167.408 492.943 191.585 465.973 193.898 464.419C196.212 462.866 199.968 433.5 199.968 433.5C199.968 433.5 224.378 427.848 228.406 429.841Z" fill="#2F2E41"/>
<path d="M228.535 74.013C245.056 74.013 258.449 60.6324 258.449 44.1266C258.449 27.6208 245.056 14.2402 228.535 14.2402C212.013 14.2402 198.62 27.6208 198.62 44.1266C198.62 60.6324 212.013 74.013 228.535 74.013Z" fill="#A0616A"/>
<path d="M193.957 41.1284C192.165 37.558 191.147 33.6506 190.968 29.6606C190.788 25.6706 191.453 21.6878 192.917 17.9715C195.858 10.7286 202.382 3.45453 216.446 1.28203C247.13 -3.45792 263.46 18.0156 262.602 25.0389C261.744 32.0623 257.624 49.04 257.624 49.04C257.624 49.04 259.464 32.9656 251.567 32.3979C243.67 31.8302 213.043 29.4357 205.289 37.5604C203.063 39.7671 201.462 42.5236 200.65 45.5493C199.837 48.575 199.842 51.7617 200.663 54.7851L193.957 41.1284Z" fill="#2F2E41"/>
</svg>
