<svg width="781" height="1024" viewBox="0 0 781 1024" fill="none" xmlns="http://www.w3.org/2000/svg">
<path fill-rule="evenodd" clip-rule="evenodd" d="M168.467 15.5022L164.768 5.38509e-05L181.751 5.23662e-05L187.103 5.18983e-05L780.751 0L780.751 1024L187.104 1024L30.7567 1024L19.5891 1008.36L19.3458 1008.01C8.10193 992.267 -13.7261 961.696 12.1207 930.845C25.3088 915.163 50.4716 899.624 75.6059 884.103C100.621 868.655 125.608 853.225 138.734 837.689C159.879 812.854 149.116 787.502 138.344 762.13C135.854 756.264 133.363 750.396 131.265 744.533C127.043 732.974 124.418 721.312 121.778 709.587C117.434 690.298 113.052 670.838 101.462 651.378C92.4527 636.371 78.7868 621.21 65.0351 605.954C50.7663 590.124 36.4051 574.192 27.0574 558.222C8.4214 527.645 8.4214 496.498 12.1207 465.778C16.0991 434.489 23.0789 403.413 34.4559 372.622C36.9228 365.579 39.6126 358.549 42.2974 351.533C51.5389 327.381 60.7225 303.381 60.5602 279.467C60.6259 269.658 59.1618 259.884 57.7013 250.134C54.5031 228.783 51.3221 207.547 64.2595 186.311C74.3043 169.634 93.6689 153.058 112.978 136.528C129.896 122.047 146.772 107.601 157.3 93.1556C179.426 61.8666 172.446 31.0044 168.467 15.5022Z" fill="url(#paint0_linear_197_803)"/>
<defs>
<linearGradient id="paint0_linear_197_803" x1="313" y1="902" x2="781" y2="17.0001" gradientUnits="userSpaceOnUse">
<stop stop-color="#0087FF"/>
<stop offset="1" stop-color="#00E0FF"/>
</linearGradient>
</defs>
</svg>
