<svg width="779" height="1024" viewBox="0 0 779 1024" fill="none" xmlns="http://www.w3.org/2000/svg">
<path fill-rule="evenodd" clip-rule="evenodd" d="M592.546 1008.5L596.635 1024H577.864H571.948H-418V3.73839e-05L571.948 6.83414e-06L744.756 0L757.099 15.6444L757.369 15.9854C769.796 31.7332 793.922 62.3042 765.354 93.1556C750.777 108.837 722.965 124.376 695.185 139.897C667.536 155.345 639.918 170.775 625.41 186.311C602.039 211.147 613.935 236.498 625.841 261.87C628.594 267.737 631.347 273.604 633.665 279.467C638.331 291.027 641.234 302.688 644.152 314.413C648.952 333.702 653.796 353.162 666.607 372.622C676.564 387.629 691.669 402.79 706.869 418.046C722.64 433.876 738.513 449.809 748.845 465.778C769.443 496.356 769.443 527.502 765.354 558.222C760.957 589.511 753.242 620.587 740.667 651.378C737.941 658.421 734.968 665.451 732 672.467C721.786 696.619 711.635 720.619 711.814 744.533C711.742 754.342 713.36 764.116 714.974 773.866C718.509 795.217 722.025 816.453 707.726 837.689C696.623 854.366 675.22 870.942 653.877 887.472C635.178 901.953 616.526 916.399 604.889 930.844C580.434 962.133 588.149 992.996 592.546 1008.5Z" fill="url(#paint0_linear_197_736)"/>
<defs>
<linearGradient id="paint0_linear_197_736" x1="177.75" y1="767.5" x2="652.876" y2="-43.4726" gradientUnits="userSpaceOnUse">
<stop stop-color="#0188FF"/>
<stop offset="1" stop-color="#00F0FF"/>
</linearGradient>
</defs>
</svg>
